<svg xmlns="http://www.w3.org/2000/svg" width="93" height="40" fill="none"><path fill="#FFC306" d="m84.352 17.084-6.482-4.012a.848.848 0 0 0-.902 0l-6.481 4.012c-1.113.69-2.532-.115-2.532-1.42V7.736c0-.92.748-1.67 1.669-1.67h15.61c.92 0 1.668.75 1.668 1.67v7.928c-.02 1.305-1.438 2.11-2.55 1.42Z"/><path fill="#4A45E2" d="M78.426 21.038a1.435 1.435 0 0 1-1.995 0c-1.63-1.536-4.755-2.707-8.457-2.707v5.739c3.644 0 6.712 1.133 8.361 2.63a1.6 1.6 0 0 0 2.187 0c1.649-1.497 4.736-2.63 8.36-2.63v-5.739c-3.7 0-6.826 1.171-8.456 2.707Z"/><path fill="#5BBFD6" d="M78.522 28.562a1.6 1.6 0 0 1-2.187 0c-1.649-1.497-4.736-2.63-8.36-2.63v3.263c0 .845.651 1.536 1.495 1.593 2.972.25 5.446 1.267 6.885 2.553a1.6 1.6 0 0 0 2.186 0c1.419-1.286 3.893-2.303 6.884-2.553.844-.077 1.496-.768 1.496-1.593v-3.263c-3.682 0-6.75 1.133-8.4 2.63Z"/><path fill="#002863" d="M33.61 14.819a1.34 1.34 0 0 0 1.36-1.344c0-.767-.613-1.343-1.36-1.343-.768 0-1.324.595-1.324 1.343 0 .768.556 1.344 1.323 1.344Zm-3.798 0c.767 0 1.342-.595 1.342-1.344 0-.767-.594-1.343-1.342-1.343-.767 0-1.323.595-1.323 1.343 0 .768.556 1.344 1.323 1.344Zm1.822 1.248c-2.838 0-5.197 1.996-5.197 4.855 0 .98.422 2.246 1.093 2.803H11.479c-1.573 0-2.838-1.152-2.838-2.572v-5.125H6.244v3.724H6.3v1.42c0 2.591 2.32 4.683 5.197 4.683h3.567v.02h21.728v-4.703c0-3.052-2.051-5.105-5.158-5.105Zm2.704 7.658h-2.762c-1.476 0-2.646-1.21-2.646-2.783 0-1.574 1.074-2.745 2.723-2.745 1.975 0 2.685 1.478 2.685 3.301v2.227ZM39.19 9.963v15.912h2.454V9.022c-.153-.057-.633-.268-1.17-.268-.805 0-1.284.403-1.284 1.209Zm7.977 7.389v9.655c0 1.574-.959 1.92-1.898 1.92-.672 0-1.324-.154-1.669-.327l-.633 1.862c.346.173 1.4.537 2.57.537 2.09 0 4.085-.94 4.085-4.241V16.412c-.154-.058-.518-.23-1.112-.23-.844 0-1.343.364-1.343 1.17Zm9.78-1.285c-2.934 0-5.158 2.15-5.158 4.951 0 3.225 2.243 4.857 5.523 4.857h2.378v.326c-.058 2.169-1.324 2.84-2.762 2.84-.94 0-1.726-.23-2.148-.48-.23.634-.46 1.248-.652 1.92.595.326 1.707.614 2.934.614 3.203 0 5.082-1.65 5.082-6.084v-2.84c0-3.801-1.438-6.104-5.197-6.104Zm2.743 7.658h-2.417c-1.84 0-2.972-.921-2.972-2.668 0-1.631 1.035-2.84 2.627-2.84 1.918 0 2.762 1.19 2.762 3.915v1.593Zm-8.783-11.286h-1.496c-.326 0-.594-.115-.805-.346-.25.25-.537.403-.997.403-.499 0-1.324-.172-1.324-1.324v-1.19c0-.307.23-.422.5-.422.19 0 .325.057.402.077v1.554c0 .307.21.5.48.5.268 0 .479-.193.479-.461V9.982c0-.288.172-.422.48-.422.19 0 .306.057.421.077v1.535c0 .269.096.442.422.442h.537V9.963c0-.288.153-.422.46-.422.192 0 .326.057.441.076v2.822Z"/></svg>