<svg width="34" height="24" fill="none" xmlns="http://www.w3.org/2000/svg"><rect x=".5" y=".5" width="33" height="23" rx="3.5" fill="#fff"/><path fill-rule="evenodd" clip-rule="evenodd" d="M10.75 15.86H8.69L7.146 9.794c-.074-.28-.23-.526-.458-.642A6.573 6.573 0 0 0 4.8 8.51v-.234h3.318c.458 0 .801.351.859.759l.8 4.375 2.06-5.134h2.002L10.75 15.86Zm4.234 0h-1.945l1.602-7.584h1.945l-1.602 7.584Zm4.118-5.483c.058-.408.401-.642.802-.642a3.534 3.534 0 0 1 1.888.35l.343-1.633a4.801 4.801 0 0 0-1.773-.35c-1.888 0-3.262 1.05-3.262 2.508 0 1.109.973 1.691 1.66 2.042.743.35 1.03.583.972.933 0 .525-.572.758-1.144.758a4.79 4.79 0 0 1-2.002-.467l-.344 1.634a5.47 5.47 0 0 0 2.117.409c2.117.057 3.433-.992 3.433-2.567 0-1.984-2.69-2.1-2.69-2.975ZM28.6 15.86l-1.545-7.584h-1.659a.863.863 0 0 0-.801.584l-2.86 7h2.002l.4-1.108h2.46l.23 1.108H28.6Zm-2.918-5.541.572 2.858h-1.602l1.03-2.858Z" fill="#172B85"/><rect x=".5" y=".5" width="33" height="23" rx="3.5" stroke="#EDEDF2"/></svg>