<svg width="20" height="20" fill="none" xmlns="http://www.w3.org/2000/svg"><path d="M10.018 14.954v-3.241M11.603 13.333H8.362M7.342 1.667 4.325 4.69M12.658 1.667l3.017 3.024" stroke="#fff" stroke-width="1.25" stroke-miterlimit="10" stroke-linecap="round" stroke-linejoin="round"/><path d="M1.667 6.542c0-1.542.825-1.667 1.85-1.667h12.966c1.025 0 1.85.125 1.85 1.667 0 1.791-.825 1.666-1.85 1.666H3.517c-1.025 0-1.85.125-1.85-1.666Z" stroke="#fff" stroke-width="1.25"/><path d="m2.917 8.334 1.175 7.2c.266 1.616.908 2.8 3.291 2.8h5.025c2.592 0 2.975-1.134 3.275-2.7l1.4-7.3" stroke="#fff" stroke-width="1.25" stroke-linecap="round"/></svg>