<svg width="16" height="16" fill="none" xmlns="http://www.w3.org/2000/svg"><path d="M8.014 11.963V9.37M9.282 10.667H6.69M5.873 1.333 3.46 3.753M10.127 1.333l2.413 2.42" stroke="#0C0C13" stroke-miterlimit="10" stroke-linecap="round" stroke-linejoin="round"/><path d="M1.333 5.233c0-1.233.66-1.333 1.48-1.333h10.374c.82 0 1.48.1 1.48 1.333 0 1.434-.66 1.334-1.48 1.334H2.813c-.82 0-1.48.1-1.48-1.334Z" stroke="#0C0C13"/><path d="m2.333 6.667.94 5.76c.214 1.293.727 2.24 2.634 2.24h4.02c2.073 0 2.38-.907 2.62-2.16l1.12-5.84" stroke="#0C0C13" stroke-linecap="round"/></svg>