<svg width="20" height="20" viewBox="0 0 20 20" fill="none" xmlns="http://www.w3.org/2000/svg">
<path d="M10.0176 14.9538L10.0176 11.7129" stroke="white" stroke-width="1.25" stroke-miterlimit="10" stroke-linecap="round" stroke-linejoin="round"/>
<path d="M11.6029 13.3333L8.36197 13.3333" stroke="white" stroke-width="1.25" stroke-miterlimit="10" stroke-linecap="round" stroke-linejoin="round"/>
<path d="M7.34162 1.6665L4.32495 4.6915" stroke="white" stroke-width="1.25" stroke-miterlimit="10" stroke-linecap="round" stroke-linejoin="round"/>
<path d="M12.6583 1.6665L15.675 4.6915" stroke="white" stroke-width="1.25" stroke-miterlimit="10" stroke-linecap="round" stroke-linejoin="round"/>
<path d="M1.66663 6.54167C1.66663 5 2.49163 4.875 3.51663 4.875H16.4833C17.5083 4.875 18.3333 5 18.3333 6.54167C18.3333 8.33333 17.5083 8.20833 16.4833 8.20833H3.51663C2.49163 8.20833 1.66663 8.33333 1.66663 6.54167Z" stroke="white" stroke-width="1.25"/>
<path d="M2.91663 8.3335L4.09163 15.5335C4.35829 17.1502 4.99996 18.3335 7.38329 18.3335H12.4083C15 18.3335 15.3833 17.2002 15.6833 15.6335L17.0833 8.3335" stroke="white" stroke-width="1.25" stroke-linecap="round"/>
</svg>
