<svg width="21" height="20" fill="none" xmlns="http://www.w3.org/2000/svg"><g clip-path="url(#a)"><path d="M20.305 10.231c0-.68-.055-1.363-.173-2.032H10.7v3.851h5.402a4.629 4.629 0 0 1-2 3.039v2.498h3.223c1.892-1.741 2.98-4.313 2.98-7.356Z" fill="#4285F4"/><path d="M10.7 20.002c2.697 0 4.972-.886 6.629-2.414l-3.223-2.499c-.896.61-2.054.955-3.402.955-2.61 0-4.821-1.76-5.615-4.126H1.764v2.576a10.001 10.001 0 0 0 8.936 5.508Z" fill="#34A853"/><path d="M5.085 11.916a5.99 5.99 0 0 1 0-3.829V5.513H1.764a10.009 10.009 0 0 0 0 8.98l3.321-2.576Z" fill="#FBBC04"/><path d="M10.7 3.958a5.434 5.434 0 0 1 3.836 1.5l2.855-2.856A9.61 9.61 0 0 0 10.7.001a9.998 9.998 0 0 0-8.936 5.511l3.321 2.576c.79-2.37 3.006-4.13 5.615-4.13Z" fill="#EA4335"/></g><defs><clipPath id="a"><path fill="#fff" transform="translate(.5)" d="M0 0h20v20H0z"/></clipPath></defs></svg>